<svg id="SvgjsSvg1026" width="288" height="288" xmlns="http://www.w3.org/2000/svg" version="1.1" xmlns:xlink="http://www.w3.org/1999/xlink" xmlns:svgjs="http://svgjs.com/svgjs"><defs id="SvgjsDefs1027"></defs><g id="SvgjsG1028" transform="matrix(1,0,0,1,0,0)"><svg xmlns="http://www.w3.org/2000/svg" id="Layer_1" x="0" y="0" version="1.1" xml:space="preserve" viewBox="0 0 140 140" width="288" height="288"><circle cx="70" cy="55.586" r="34.836" fill="#ffffff" class="colorfff svgShape"></circle><path fill="#d6e5ea" d="M35.164 55.586C35.164 36.348 50.76 20.75 70 20.75s34.836 15.598 34.836 34.836" class="colord6e5ea svgShape"></path><path fill="#0695ed" d="M70.002 8C43.609 8 22.209 29.682 22.209 56.424 22.209 92.43 60.428 132 70.002 132s47.789-39.57 47.789-75.576C117.791 29.682 96.398 8 70.002 8zm0 77.967c-16.018 0-28.998-13.156-28.998-29.383a29.501 29.501 0 0 1 5.506-17.217c.371 6.213 5.449 11.141 11.678 11.141 6.467 0 11.709-5.309 11.709-11.865 0-4.682-2.682-8.717-6.568-10.65a28.77 28.77 0 0 1 6.674-.789C86.018 27.203 99 40.357 99 56.584S86.018 85.967 70.002 85.967z" class="color0695ed svgShape"></path><path fill="#0779ea" d="M97.975 64.229C94.648 76.742 83.4 85.967 70.002 85.967c-12.854 0-23.734-8.482-27.537-20.213 1.275 17.529 13.191 31.273 27.723 31.273 14.947 0 27.109-14.552 27.787-32.798z" class="color0779ea svgShape"></path><path fill="#4fcced" d="M70.002 12.197c25.611 0 46.508 20.41 47.73 46.051.023-.607.059-1.217.059-1.824C117.791 29.682 96.398 8 70.002 8 43.609 8 22.209 29.682 22.209 56.424c0 .607.037 1.217.061 1.824 1.22-25.641 22.125-46.051 47.732-46.051z" class="color4fcced svgShape"></path><path fill="none" stroke="#33363a" stroke-linecap="round" stroke-linejoin="round" stroke-miterlimit="10" stroke-width="3" d="M70.002 8C43.609 8 22.209 29.682 22.209 56.424 22.209 92.43 60.428 132 70.002 132s47.789-39.57 47.789-75.576C117.791 29.682 96.398 8 70.002 8zm0 77.967c-16.018 0-28.998-13.156-28.998-29.383a29.501 29.501 0 0 1 5.506-17.217c.371 6.213 5.449 11.141 11.678 11.141 6.467 0 11.709-5.309 11.709-11.865 0-4.682-2.682-8.717-6.568-10.65a28.77 28.77 0 0 1 6.674-.789C86.018 27.203 99 40.357 99 56.584S86.018 85.967 70.002 85.967z" class="colorStroke33363a svgStroke"></path></svg></g></svg>