<svg xmlns="http://www.w3.org/2000/svg" xmlns:xlink="http://www.w3.org/1999/xlink" viewBox="0 0 32 32" id="Globe"><defs><linearGradient id="a"><stop offset="0" stop-color="#0695ed" class="stopColor000092 svgShape"></stop><stop offset="1" stop-color="#009eff" class="stopColorff00f3 svgShape"></stop></linearGradient><linearGradient id="b" x1=".5" x2="28" y1="15.5" y2="15.5" gradientUnits="userSpaceOnUse" xlink:href="#a"></linearGradient></defs><path fill="url(#b)" d="M14 2C6.55 2 .5 8.05.5 15.5S6.55 29 14 29c.53 0 1.05-.04 1.564-.1l.018.018.02-.022c6.5-.771 11.579-6.167 11.869-12.802l1.76 1.76a.5.5 0 0 0 .706 0l1.417-1.415a.5.5 0 0 0 0-.707l-4.573-4.57a13.395 13.395 0 0 0-.648-1.562 4.934 4.934 0 0 0 .306-1.662 5.009 5.009 0 0 0-5.002-5.002 4.95 4.95 0 0 0-1.755.334 13.402 13.402 0 0 0-4.073-1.157l-.058-.05v-.008l-.04.047c-.497-.056-.999-.094-1.511-.094V2zm.5 1.027c.225.01.449.019.67.04.745.65 1.44 1.379 2.053 2.199a4.957 4.957 0 0 0-.79 2.671c0 .022.004.042.005.063H14.5V3.027zm-1 .006V8H9.16c.916-1.94 2.17-3.621 3.67-4.934.22-.02.446-.024.67-.033zm3.416.32c.56.134 1.103.31 1.63.516-.247.177-.479.372-.69.59a15.706 15.706 0 0 0-.94-1.105zm-5.848.014A16.53 16.53 0 0 0 8.047 8H4.02a12.474 12.474 0 0 1 7.048-4.633zm10.37.569a3.994 3.994 0 0 1 4.001 4.002c0 .12-.024.234-.035.353a13.57 13.57 0 0 0-4.388-4.314c.14-.015.277-.041.422-.041zm-1.774.427A12.546 12.546 0 0 1 23.988 8h-4.031a17.004 17.004 0 0 0-1.5-2.719 3.98 3.98 0 0 1 1.207-.918zm-1.82 1.834c.367.574.707 1.171 1.006 1.803h-1.41c0-.021-.006-.041-.006-.063 0-.627.154-1.212.41-1.74zM3.34 9h4.306a18.735 18.735 0 0 0-1.132 6H1.525A12.42 12.42 0 0 1 3.34 9zm5.396 0H13.5v6H7.514a17.624 17.624 0 0 1 1.222-6zM14.5 9h2.053a5.014 5.014 0 0 0 3.75 3.799c.107.717.17 1.452.191 2.201H14.5V9zm3.094 0h1.676c.34.864.635 1.757.837 2.7A3.977 3.977 0 0 1 17.594 9zm2.765 0h4.313c.13.213.252.431.369.652a3.982 3.982 0 0 1-3.604 2.29c-.093 0-.18-.022-.273-.028A18.353 18.353 0 0 0 20.36 9zm4.983 2.137 4.949 4.949-.707.707-4.95-4.95.708-.706zm-1.61 1.218L26.377 15h-4.883c-.018-.7-.073-1.389-.164-2.064.036 0 .071.005.108.005.83 0 1.604-.225 2.294-.586zM1.525 16h4.989a18.74 18.74 0 0 0 1.132 6H3.33a12.417 12.417 0 0 1-1.805-6zm5.989 0H13.5v6H8.738a17.616 17.616 0 0 1-1.224-6zm6.986 0h5.969c-.106 1.883-.619 3.954-1.516 6H14.5v-6zm6.97 0h5.005a12.419 12.419 0 0 1-1.805 6h-4.633c.843-2.03 1.336-4.084 1.434-6zM4.009 23h4.04c.771 1.754 1.801 3.329 3.04 4.652A12.475 12.475 0 0 1 4.008 23zm5.154 0H13.5v4.982c-.218-.008-.437-.013-.652-.033-1.507-1.314-2.766-3.002-3.686-4.949zm5.338 0h3.963a22.123 22.123 0 0 1-3.37 4.953c-.195.017-.395.022-.593.03V23zm5.086 0h4.406a12.479 12.479 0 0 1-7.392 4.732A23.25 23.25 0 0 0 19.586 23z" color="#000" font-family="sans-serif" font-weight="400" overflow="visible" style="line-height:normal;text-indent:0;text-align:start;text-decoration-line:none;text-decoration-style:solid;text-decoration-color:#000;text-transform:none;block-progression:tb;isolation:auto;mix-blend-mode:normal;marker:none"></path></svg>