<svg xmlns="http://www.w3.org/2000/svg" fill="none" viewBox="0 0 24 24" id="privacy"><path fill="url(#paint0_linear_1233_4675)" fill-rule="evenodd" d="M11 2C8.51472 2 6.5 4.01472 6.5 6.5V8C5.11929 8 4 9.11929 4 10.5V19.5C4 20.8807 5.11929 22 6.5 22H16.5C17.8807 22 19 20.8807 19 19.5V10.5C19 9.11929 17.8807 8 16.5 8V6.5C16.5 4.01472 14.4853 2 12 2H11ZM14.5 8V6.5C14.5 5.11929 13.3807 4 12 4H11C9.61929 4 8.5 5.11929 8.5 6.5V8H14.5ZM7.5 10H15.5H16.5C16.7761 10 17 10.2239 17 10.5V19.5C17 19.7761 16.7761 20 16.5 20H6.5C6.22386 20 6 19.7761 6 19.5V10.5C6 10.2239 6.22386 10 6.5 10H7.5ZM11 13.5C11 13.2239 11.2239 13 11.5 13C11.7761 13 12 13.2239 12 13.5C12 13.7761 11.7761 14 11.5 14C11.2239 14 11 13.7761 11 13.5ZM13.7117 14.6666C13.8958 14.3183 14 13.9213 14 13.5C14 12.1193 12.8807 11 11.5 11C10.1193 11 9 12.1193 9 13.5C9 13.9213 9.10422 14.3183 9.2883 14.6666C8.21041 15.3832 7.5 16.6086 7.5 18C7.5 18.5523 7.94772 19 8.5 19H14.5C15.0523 19 15.5 18.5523 15.5 18C15.5 16.6086 14.7896 15.3832 13.7117 14.6666ZM11.5 16C10.7597 16 10.1134 16.4022 9.76756 17H13.2324C12.8866 16.4022 12.2403 16 11.5 16Z" clip-rule="evenodd"></path><defs><linearGradient id="paint0_linear_1233_4675" x1="11.5" x2="11.5" y1="2" y2="22" gradientUnits="userSpaceOnUse"><stop stop-color="#0695ed" class="stopColorf857a6 svgShape"></stop><stop offset="1" stop-color="#58bfff" class="stopColorff585a svgShape"></stop></linearGradient></defs></svg>