<svg xmlns="http://www.w3.org/2000/svg" viewBox="0 0 64 64" id="sos"><path fill="#0695ed" d="M52,8V56a8,8,0,0,1-8,8H20a8,8,0,0,1-8-8V8a8,8,0,0,1,8-8H44A8,8,0,0,1,52,8Z" class="color00bebd svgShape"></path><path fill="#ffffff" d="M49,9V54a6,6,0,0,1-6,6H21a6,6,0,0,1-6-6V9a6,6,0,0,1,6-6h3.29a1,1,0,0,1,.94.68l.31.95A2,2,0,0,0,27.44,6h9.12a2,2,0,0,0,1.9-1.37l.31-.94A1,1,0,0,1,39.72,3H43A6,6,0,0,1,49,9Z" class="colorffffff svgShape"></path><circle cx="32" cy="43" r="8" fill="#50a5d9" class="color50d9d7 svgShape"></circle><path fill="#50a5d9" d="M39.78 51.78a1 1 0 01-.71-1.71 10 10 0 00.2-13.93 1 1 0 111.46-1.38 12 12 0 01-.24 16.73A1 1 0 0139.78 51.78zM24.22 51.78a1 1 0 01-.71-.29 12 12 0 010-17 1 1 0 011.42 1.42 10 10 0 000 14.14A1 1 0 0124.22 51.78z" class="color50d9d7 svgShape"></path><path fill="#ffffff" d="M36,44.71l-1-1a1,1,0,0,0-1-.24L32.41,44,31,42.59l.51-1.54a1,1,0,0,0-.24-1l-1-1c-1.34-1.35-3.52,2.14-1.41,4.24l2.83,2.83C33.8,48.22,37.31,46.07,36,44.71Z" class="colorffffff svgShape"></path><path fill="#d9d9d9" d="M42,58H22a1,1,0,0,1,0-2H42a1,1,0,0,1,0,2Z" class="colord9d9d9 svgShape"></path><circle cx="44" cy="6" r="1" fill="#d9d9d9" class="colord9d9d9 svgShape"></circle><rect width="3" height="20" x="49" y="9" fill="#0069aa" class="color00aaa8 svgShape"></rect><rect width="3" height="20" x="12" y="9" fill="#0069aa" class="color00aaa8 svgShape"></rect><path fill="#f3f3f3" d="M49,9V29H37l-2.62,3.27a3,3,0,0,1-4.68,0L27,29H15V9Z" class="colorf3f3f3 svgShape"></path><path fill="#009eff" d="M7,13V25a2,2,0,0,0,2,2H27a2,2,0,0,1,1.56.75L31.22,31a1,1,0,0,0,1.56,0l2.62-3.27A2,2,0,0,1,37,27H55a2,2,0,0,0,2-2V13a2,2,0,0,0-2-2H9A2,2,0,0,0,7,13Z" class="colorffac00 svgShape"></path><path fill="#ffffff" d="M22 24H20a1 1 0 010-2h2a1 1 0 000-2 3 3 0 010-6h2a1 1 0 010 2H22a1 1 0 000 2 3 3 0 010 6zM42 24H40a1 1 0 010-2h2a1 1 0 000-2 3 3 0 010-6h2a1 1 0 010 2H42a1 1 0 000 2 3 3 0 010 6zM32 24a4 4 0 01-4-4V18a4 4 0 018 0v2A4 4 0 0132 24zm0-8a2 2 0 00-2 2v2a2 2 0 004 0V18A2 2 0 0032 16zM13 21h0a1.13 1.13 0 01-1.12-1l-.63-5A1.76 1.76 0 0113 13h0a1.76 1.76 0 011.75 2l-.63 5A1.13 1.13 0 0113 21z" class="colorffffff svgShape"></path><circle cx="13" cy="24" r="1" fill="#ffffff" class="colorffffff svgShape"></circle><path fill="#ffffff" d="M51,21h0a1.13,1.13,0,0,1-1.12-1l-.63-5A1.76,1.76,0,0,1,51,13h0a1.76,1.76,0,0,1,1.75,2l-.63,5A1.13,1.13,0,0,1,51,21Z" class="colorffffff svgShape"></path><circle cx="51" cy="24" r="1" fill="#ffffff" class="colorffffff svgShape"></circle></svg>