<svg xmlns="http://www.w3.org/2000/svg" enable-background="new 0 0 100 100" viewBox="0 0 100 100" id="Star"><path d="M54.8,80.4V96c0,1,0.8,2,2,2s2-1,2-2V80.4c0-1-0.8-2-2-2S54.8,79.4,54.8,80.4z" fill="#0695ed" class="color000000 svgShape"></path><path d="M10.2,31c-0.6,2.2-0.2,4.6,1.6,6L26,50.8c0.4,0.4,0.6,1,0.6,1.8L23,72c-0.4,1.8,0.2,3.6,1.4,4.8c1.8,2,4.8,2.8,7.4,1.4
		L49.2,69c0.6-0.4,1.2-0.4,1.8,0l17.4,9.2c2.8,1.4,5.6,0.6,7.4-1.4c1.2-1.4,1.6-3,1.4-4.8l-3.4-19.4c0-0.6,0.2-1.2,0.6-1.8L88.6,37
		c1.6-1.6,2.2-4,1.6-6c-0.8-2.2-2.6-3.8-4.8-4l-19.8-3c-0.6,0-1.2-0.4-1.4-1L55.4,5.4C54.4,3.2,52.2,2,50,2s-4.4,1.2-5.4,3.4L36,23
		c-0.2,0.6-0.8,1-1.4,1L15,26.8C12.8,27.2,10.8,28.8,10.2,31z" fill="#0695ed" class="color000000 svgShape"></path><path d="M41.2,79v13.2c0,1,0.8,2,2,2s2-1,2-2V79c0-1.2-0.8-2-2-2C42.2,77,41.2,77.8,41.2,79z" fill="#0695ed" class="color000000 svgShape"></path></svg>